<svg width="127" height="61" viewBox="0 0 127 61" fill="none" xmlns="http://www.w3.org/2000/svg">
<path d="M20.7618 17.1912V21.1202H12.3365V43.6388H8.40567V21.1202H0V17.1912H20.7618Z" fill="#2F5FAC"/>
<path d="M29.3385 43.4355C27.6014 43.4355 26.0158 42.9878 24.5873 42.0943C23.1569 41.2008 22.0172 40.0005 21.1683 38.4952C20.3175 36.9899 19.8931 35.3241 19.8931 33.4978C19.8931 32.112 20.1392 30.819 20.6297 29.6151C21.1201 28.413 21.7979 27.3554 22.6611 26.4422C23.5243 25.5291 24.5284 24.8139 25.6734 24.2985C26.8184 23.783 28.0401 23.5244 29.3385 23.5244C30.7867 23.5244 32.1154 23.824 33.3247 24.4215C34.5339 25.019 35.5665 25.8448 36.4226 26.897C37.2787 27.9493 37.9083 29.1585 38.3113 30.5247C38.7144 31.8908 38.8339 33.3426 38.6698 34.8782H24.1039C24.268 35.7468 24.5855 36.5315 25.0581 37.2307C25.5307 37.9298 26.1353 38.4809 26.8719 38.884C27.6085 39.2871 28.4307 39.4957 29.3367 39.5082C30.2945 39.5082 31.1666 39.2692 31.9531 38.7895C32.7397 38.3115 33.3853 37.6498 33.89 36.8062L37.8762 37.7318C37.12 39.4065 35.9803 40.7763 34.4572 41.841C32.9323 42.904 31.2273 43.4355 29.3385 43.4355ZM23.9719 31.8748H34.7015C34.5749 30.9688 34.2574 30.1466 33.7474 29.41C33.2373 28.6734 32.6006 28.0866 31.839 27.6532C31.0774 27.2181 30.2428 27.0023 29.3367 27.0023C28.4432 27.0023 27.6139 27.2163 26.8523 27.6443C26.0908 28.0724 25.4612 28.6556 24.9636 29.3922C24.466 30.127 24.136 30.9545 23.9719 31.8748Z" fill="#2F5FAC"/>
<path d="M54.1224 37.5802L57.6359 39.4885C56.7798 40.6852 55.6936 41.6412 54.3774 42.36C53.0612 43.0787 51.6344 43.4372 50.0988 43.4372C48.3616 43.4372 46.7761 42.9895 45.3475 42.096C43.9171 41.2025 42.7775 40.0022 41.9285 38.4969C41.0778 36.9916 40.6533 35.3258 40.6533 33.4995C40.6533 32.1137 40.8994 30.8207 41.3899 29.6168C41.8804 28.4147 42.5581 27.3571 43.4213 26.4439C44.2845 25.5308 45.2887 24.8156 46.4337 24.3002C47.5787 23.7847 48.8004 23.5261 50.0988 23.5261C51.6344 23.5261 53.0612 23.8846 54.3774 24.6034C55.6936 25.3221 56.7798 26.2852 57.6359 27.4944L54.1224 29.4028C53.5927 28.7732 52.9756 28.2917 52.2711 27.9581C51.5666 27.6246 50.8407 27.457 50.0988 27.457C49.0661 27.457 48.1316 27.737 47.2933 28.297C46.4551 28.857 45.7952 29.5936 45.3101 30.5068C44.8249 31.4199 44.5824 32.4187 44.5824 33.5013C44.5824 34.5714 44.8285 35.563 45.319 36.4762C45.8094 37.3893 46.4747 38.1223 47.3112 38.677C48.1494 39.2317 49.0768 39.5081 50.097 39.5081C50.8782 39.5081 51.6201 39.3316 52.3264 38.9784C53.0326 38.6253 53.6319 38.1598 54.1224 37.5802Z" fill="#2F5FAC"/>
<path d="M78.0764 33.7581V43.6387H74.1473V33.8348C74.1473 32.7647 73.9244 31.7891 73.4767 30.9063C73.029 30.0252 72.4351 29.3261 71.6914 28.8089C70.9477 28.2934 70.1237 28.0348 69.2159 28.0348C68.2332 28.0348 67.3967 28.2934 66.7029 28.8089C66.0109 29.3261 65.4777 30.0252 65.1067 30.9063C64.7357 31.7873 64.5502 32.7647 64.5502 33.8348V43.6387H60.6016V17.1519H64.5306V26.9576C65.0603 25.9374 65.7559 25.2294 66.6173 24.8316C67.4805 24.4357 68.4722 24.2359 69.5922 24.2359C71.2919 24.2359 72.7722 24.6711 74.0314 25.5397C75.2905 26.4083 76.2732 27.564 76.9777 29.0068C77.6858 30.4497 78.0514 32.0334 78.0764 33.7581Z" fill="#2F5FAC"/>
<path d="M98.6438 17.0876V32.0406C98.6438 33.4264 98.3941 34.6944 97.8983 35.8466C97.4007 36.9987 96.6677 37.919 95.6974 38.6039C94.7272 39.2905 93.5305 39.633 92.1072 39.633C90.7214 39.633 89.5408 39.2905 88.5652 38.6039C87.5896 37.9172 86.8459 36.9987 86.3358 35.8466C85.8257 34.6944 85.5707 33.4264 85.5707 32.0406V20.6226L81.6416 22.9447V32.0406C81.6416 34.1683 82.0732 36.1052 82.9364 37.8495C83.7996 39.5937 85.0142 40.9831 86.5819 42.0157C88.1496 43.0484 89.992 43.5656 92.1072 43.5656C93.6945 43.5656 95.1303 43.2695 96.4144 42.6774C97.6985 42.0853 98.8007 41.2595 99.721 40.2019C100.64 39.1443 101.346 37.919 101.836 36.5279C102.327 35.1367 102.573 33.6404 102.573 32.0406V17.0876H98.6438Z" fill="#2F5FAC"/>
<path d="M126.092 29.7737C125.575 28.5769 124.865 27.5229 123.958 26.6097C123.051 25.6966 121.996 24.9814 120.794 24.466C119.591 23.9505 118.302 23.6919 116.93 23.6919C115.595 23.6919 114.437 23.9933 113.454 24.5979C112.472 25.2026 111.666 25.9891 111.036 26.9593V23.4868H107.107V50.976L111.036 48.6771V40.3338C111.666 41.2916 112.472 42.0745 113.454 42.6863C114.437 43.2962 115.595 43.603 116.93 43.603C118.302 43.603 119.591 43.3444 120.794 42.829C121.996 42.3135 123.051 41.5983 123.958 40.6852C124.864 39.772 125.575 38.7108 126.092 37.5016C126.61 36.2924 126.866 35.0011 126.866 33.6296C126.866 32.2545 126.61 30.9704 126.092 29.7737ZM122.049 36.7436C121.507 37.6764 120.783 38.4148 119.877 38.9641C118.971 39.5116 117.976 39.7863 116.891 39.7863C115.796 39.7863 114.831 39.5098 114 38.9552C113.169 38.4005 112.52 37.6586 112.054 36.7258C111.589 35.7948 111.355 34.7604 111.355 33.6278C111.355 32.4953 111.587 31.4644 112.054 30.5388C112.52 29.6132 113.169 28.873 114 28.3201C114.831 27.7655 115.794 27.489 116.891 27.489C117.986 27.489 118.989 27.7655 119.895 28.3201C120.801 28.8748 121.521 29.6167 122.058 30.5495C122.593 31.4823 122.861 32.5078 122.861 33.6296C122.862 34.7729 122.591 35.8126 122.049 36.7436Z" fill="#2F5FAC"/>
<path d="M103.823 0.854248L109.629 4.24113L103.793 7.52278V7.53883L103.814 7.52635L126.977 21.056L127 14.3429L103.823 0.854248Z" fill="#F47E20"/>
<path d="M103.823 0.854248L103.793 0.8703L80.5913 14.3447V21.0079L94.681 12.6468L103.793 7.52278L109.629 4.24113L103.823 0.854248Z" fill="#FBAA1C"/>
<path d="M103.771 60.0935L107.943 57.6608L103.75 55.303V55.2905L103.766 55.3012L120.406 45.5811L120.422 50.4037L103.771 60.0935Z" fill="#F47E20"/>
<path d="M103.772 60.0934L103.75 60.0809L87.0835 50.4019V45.6167L97.2049 51.6218L103.75 55.3029L107.943 57.6607L103.772 60.0934Z" fill="#FBAA1C"/>
</svg>
